<?xml version="1.0" encoding="UTF-8"?>
<!DOCTYPE svg PUBLIC "-//W3C//DTD SVG 1.1//EN" "http://www.w3.org/Graphics/SVG/1.1/DTD/svg11.dtd">
<svg xmlns="http://www.w3.org/2000/svg" version="1.1" width="690px" height="469px" style="shape-rendering:geometricPrecision; text-rendering:geometricPrecision; image-rendering:optimizeQuality; fill-rule:evenodd; clip-rule:evenodd" xmlns:xlink="http://www.w3.org/1999/xlink">
<g><path style="opacity:1" fill="#170a24" d="M -0.5,-0.5 C 229.5,-0.5 459.5,-0.5 689.5,-0.5C 689.5,155.833 689.5,312.167 689.5,468.5C 459.5,468.5 229.5,468.5 -0.5,468.5C -0.5,312.167 -0.5,155.833 -0.5,-0.5 Z"/></g>
<g><path style="opacity:1" fill="#f9f8f9" d="M 236.5,39.5 C 243.527,38.8522 246.193,41.8522 244.5,48.5C 184.758,75.9794 159.592,122.313 169,187.5C 171.712,202.337 178.212,215.17 188.5,226C 196.719,232.781 206.052,236.781 216.5,238C 198.308,228.134 187.475,212.967 184,192.5C 181.581,139.499 202.748,98.9993 247.5,71C 270.117,57.9289 294.451,52.2622 320.5,54C 325.757,57.4795 325.757,61.1462 320.5,65C 262.586,64.6843 222.753,91.1843 201,144.5C 195.286,161.114 193.619,178.114 196,195.5C 199.062,205.886 204.562,214.72 212.5,222C 213.332,222.688 213.998,222.521 214.5,221.5C 204.267,205.37 201.434,188.037 206,169.5C 223.209,124.284 255.375,95.7842 302.5,84C 330.05,79.2215 356.716,82.2215 382.5,93C 385.333,96.6631 385,99.9965 381.5,103C 379.5,103.667 377.5,103.667 375.5,103C 321.696,83.2886 275.529,94.4553 237,136.5C 227.395,148.788 220.395,162.455 216,177.5C 213.806,191.722 216.806,204.722 225,216.5C 219.437,188.189 227.937,165.023 250.5,147C 294.206,113.613 341.206,108.28 391.5,131C 405.864,138.773 418.697,148.607 430,160.5C 431.329,166.834 428.829,169.668 422.5,169C 384.988,130.54 340.655,119.873 289.5,137C 272.987,144.336 258.487,154.503 246,167.5C 237.338,179.472 234.004,192.805 236,207.5C 241.599,180.894 257.433,163.394 283.5,155C 329.442,141.443 371.109,149.443 408.5,179C 425.996,193.835 438.663,212.001 446.5,233.5C 445.017,239.074 441.684,240.574 436.5,238C 421.242,200.406 394.242,175.739 355.5,164C 326.319,156.84 298.319,159.84 271.5,173C 257.956,181.61 250.123,193.777 248,209.5C 264.752,183.382 288.586,172.882 319.5,178C 373.146,187.651 408.98,218.151 427,269.5C 432.156,284.91 433.49,300.577 431,316.5C 428,319.167 425,319.167 422,316.5C 422.382,265.741 400.882,227.575 357.5,202C 336.337,191.232 314.004,187.232 290.5,190C 279.769,193.403 270.602,199.236 263,207.5C 262.333,208.167 262.333,208.833 263,209.5C 279.279,197.981 297.112,194.814 316.5,200C 364.552,218.389 393.385,252.889 403,303.5C 406.209,327.618 403.209,350.952 394,373.5C 391.611,379.858 387.945,380.858 383,376.5C 382.333,374.167 382.333,371.833 383,369.5C 402.586,316.95 392.086,271.45 351.5,233C 338.324,221.911 323.324,214.245 306.5,210C 292.855,207.828 280.522,210.828 269.5,219C 299.235,213.615 323.069,223.115 341,247.5C 375.187,295.914 377.52,345.914 348,397.5C 341.25,406.921 333.75,415.754 325.5,424C 319.166,425.329 316.332,422.829 317,416.5C 358.784,374.133 367.45,325.8 343,271.5C 336.315,260.478 328.482,250.311 319.5,241C 307.609,230.943 293.943,227.276 278.5,230C 304.406,235.237 321.572,250.404 330,275.5C 347.278,335.994 331.445,385.827 282.5,425C 272.82,431.09 262.653,436.257 252,440.5C 246.977,439.458 245.31,436.458 247,431.5C 302.075,406.702 328.075,364.035 325,303.5C 322.637,289.051 317.971,275.384 311,262.5C 302.268,250.888 290.768,244.055 276.5,242C 301.696,257.902 312.196,280.735 308,310.5C 301.273,357.854 276.773,392.354 234.5,414C 214.229,423.563 192.896,427.563 170.5,426C 166.99,422.952 166.657,419.619 169.5,416C 201.043,416.041 229.377,406.707 254.5,388C 287.311,358.567 300.477,322.067 294,278.5C 289.875,269.374 283.875,261.707 276,255.5C 280.044,261.929 283.377,268.929 286,276.5C 289.267,292.401 287.6,307.734 281,322.5C 253.582,375.135 210.082,400.302 150.5,398C 135.463,396.536 121.297,392.369 108,385.5C 105.271,380.394 106.771,377.394 112.5,376.5C 158.293,394.7 200.626,388.867 239.5,359C 256.135,344.363 267.968,326.53 275,305.5C 278.182,290.381 275.515,276.381 267,263.5C 272.567,292.299 263.067,316.132 238.5,335C 199.532,363.165 157.199,369.498 111.5,354C 92.5359,346.036 76.0359,334.536 62,319.5C 59.9403,312.562 62.4403,309.729 69.5,311C 111.615,353.149 159.948,361.815 214.5,337C 225.186,330.651 235.02,323.151 244,314.5C 253.902,302.229 257.902,288.229 256,272.5C 250.248,299.586 234.081,317.086 207.5,325C 147.785,340.984 98.9517,324.817 61,276.5C 54.3833,267.1 49.2166,256.934 45.5,246C 47.0403,240.48 50.3737,239.147 55.5,242C 76.6433,291.494 114.143,317.328 168,319.5C 186.894,319.315 204.728,314.815 221.5,306C 234.261,296.961 241.761,284.795 244,269.5C 233.858,287.835 218.358,298.668 197.5,302C 145.142,303.575 104.975,282.408 77,238.5C 63.7766,215.604 58.1099,190.937 60,164.5C 62.9707,160.908 66.304,160.575 70,163.5C 70.4544,223.305 98.2877,264.138 153.5,286C 164.949,289.183 176.615,291.017 188.5,291.5C 204.912,290.992 218.245,284.492 228.5,272C 202.362,285.589 176.695,284.589 151.5,269C 106.697,240.233 85.5307,199.066 88,145.5C 88.9936,130.016 93.1602,115.516 100.5,102C 107.276,99.7684 110.109,102.268 109,109.5C 89.2985,162.902 100.132,209.068 141.5,248C 154.291,258.229 168.624,265.563 184.5,270C 198.313,271.7 210.98,268.7 222.5,261C 223.696,260.346 223.696,259.846 222.5,259.5C 194.784,266.539 171.951,258.872 154,236.5C 122.517,195.793 115.517,151.126 133,102.5C 141.092,84.8274 152.259,69.3274 166.5,56C 172.834,54.6714 175.668,57.1714 175,63.5C 135.177,102.473 125.177,148.139 145,200.5C 152.069,214.796 161.236,227.629 172.5,239C 184.07,248.893 197.403,252.56 212.5,250C 184.786,243.286 167.286,226.119 160,198.5C 145.65,139.207 162.484,91.04 210.5,54C 219.068,48.8854 227.734,44.0521 236.5,39.5 Z"/></g>
<g><path style="opacity:1" fill="#30356b" d="M 646.5,111.5 C 658.379,102.654 661.212,91.3212 655,77.5C 640.878,62.5292 627.378,63.0292 614.5,79C 608.947,92.9767 612.28,104.143 624.5,112.5C 608.214,105.676 600.714,93.3429 602,75.5C 608.593,51.9017 623.76,43.0684 647.5,49C 668.143,59.7913 673.976,75.958 665,97.5C 660.593,104.067 654.76,109.067 647.5,112.5C 646.893,112.376 646.56,112.043 646.5,111.5 Z"/></g>
<g><path style="opacity:1" fill="#000001" d="M 646.5,111.5 C 639.345,115.043 632.012,115.376 624.5,112.5C 612.28,104.143 608.947,92.9767 614.5,79C 627.378,63.0292 640.878,62.5292 655,77.5C 661.212,91.3212 658.379,102.654 646.5,111.5 Z"/></g>
<g><path style="opacity:1" fill="#f8f7f8" d="M 487.5,195.5 C 498.833,195.5 510.167,195.5 521.5,195.5C 521.5,196.833 521.5,198.167 521.5,199.5C 519.143,199.337 516.81,199.503 514.5,200C 512.714,200.196 511.381,201.029 510.5,202.5C 518.722,225.276 527.222,247.943 536,270.5C 545.069,247.793 554.236,225.127 563.5,202.5C 560.122,200.621 556.456,199.621 552.5,199.5C 552.5,198.167 552.5,196.833 552.5,195.5C 561.5,195.5 570.5,195.5 579.5,195.5C 579.5,196.833 579.5,198.167 579.5,199.5C 576.028,199.126 573.028,200.126 570.5,202.5C 558.723,231.054 547.223,259.721 536,288.5C 532.583,290.133 530.25,289.133 529,285.5C 518.932,257.795 508.765,230.128 498.5,202.5C 495.122,200.621 491.456,199.621 487.5,199.5C 487.5,198.167 487.5,196.833 487.5,195.5 Z"/></g>
<g><path style="opacity:1" fill="#fbfafb" d="M 607.5,195.5 C 627.167,195.5 646.833,195.5 666.5,195.5C 666.5,201.5 666.5,207.5 666.5,213.5C 665.167,213.5 663.833,213.5 662.5,213.5C 662.804,209.785 662.137,206.285 660.5,203C 650.172,202.5 639.839,202.334 629.5,202.5C 629.5,213.5 629.5,224.5 629.5,235.5C 638.5,235.5 647.5,235.5 656.5,235.5C 656.5,232.833 656.5,230.167 656.5,227.5C 658.167,227.5 659.833,227.5 661.5,227.5C 661.5,236.167 661.5,244.833 661.5,253.5C 659.833,253.5 658.167,253.5 656.5,253.5C 656.751,250.091 656.417,246.758 655.5,243.5C 646.859,242.502 638.192,242.169 629.5,242.5C 629.5,254.833 629.5,267.167 629.5,279.5C 640.853,279.832 652.186,279.499 663.5,278.5C 665.861,275.112 667.694,271.446 669,267.5C 670.356,266.62 671.856,266.286 673.5,266.5C 672.432,273.081 671.099,279.581 669.5,286C 648.836,286.5 628.169,286.667 607.5,286.5C 607.5,285.167 607.5,283.833 607.5,282.5C 609.415,282.784 611.081,282.451 612.5,281.5C 614.5,281.167 616.5,280.833 618.5,280.5C 618.5,254.167 618.5,227.833 618.5,201.5C 616.5,201.167 614.5,200.833 612.5,200.5C 611.081,199.549 609.415,199.216 607.5,199.5C 607.5,198.167 607.5,196.833 607.5,195.5 Z"/></g>
<g><path style="opacity:1" fill="#8a8390" d="M 607.5,195.5 C 607.5,196.833 607.5,198.167 607.5,199.5C 609.415,199.216 611.081,199.549 612.5,200.5C 610.5,200.5 608.5,200.5 606.5,200.5C 606.216,198.585 606.549,196.919 607.5,195.5 Z"/></g>
<g><path style="opacity:1" fill="#938d99" d="M 612.5,281.5 C 611.081,282.451 609.415,282.784 607.5,282.5C 607.5,283.833 607.5,285.167 607.5,286.5C 606.549,285.081 606.216,283.415 606.5,281.5C 608.5,281.5 610.5,281.5 612.5,281.5 Z"/></g>
</svg>
